<?xml version="1.0" standalone="no"?>
<!DOCTYPE svg PUBLIC "-//W3C//DTD SVG 20010904//EN"
 "http://www.w3.org/TR/2001/REC-SVG-20010904/DTD/svg10.dtd">
<svg version="1.0" xmlns="http://www.w3.org/2000/svg"
 width="256.000000pt" height="256.000000pt" viewBox="0 0 256.000000 256.000000"
 preserveAspectRatio="xMidYMid meet">
<metadata>
Created by potrace 1.11, written by Peter Selinger 2001-2013
</metadata>
<g transform="translate(0.000000,256.000000) scale(0.100000,-0.100000)"
fill="#000000" stroke="none">
<path d="M440 1940 c-58 -4 -106 -8 -107 -9 -2 0 -3 -293 -3 -650 l0 -648 77
-7 c125 -10 498 -7 555 5 146 31 205 108 215 283 13 217 -56 363 -182 383
l-37 6 38 13 c57 20 87 45 114 100 22 42 25 65 28 170 5 158 -11 221 -72 280
-64 61 -130 76 -346 79 -96 2 -222 -1 -280 -5z m392 -237 c44 -45 44 -231 -1
-276 -19 -19 -35 -22 -121 -25 l-100 -4 0 167 0 167 100 -4 c86 -3 103 -7 122
-25z m-20 -504 c53 -14 71 -52 76 -164 4 -106 -11 -163 -48 -182 -15 -8 -65
-13 -127 -13 l-103 0 0 185 0 185 83 0 c45 0 99 -5 119 -11z"/>
<path d="M1322 1283 l3 -648 143 -3 143 -3 -3 286 -3 285 43 0 c58 0 97 -22
126 -73 31 -54 40 -84 96 -307 l46 -185 144 -3 c79 -1 147 1 151 5 8 10 -79
338 -121 456 -19 50 -45 101 -67 126 -35 41 -98 81 -128 81 -29 0 -15 17 26
29 55 17 112 78 143 155 14 36 46 142 71 238 25 95 48 181 51 191 5 16 -7 17
-145 17 -131 0 -151 -2 -151 -16 0 -37 -84 -353 -106 -401 -31 -64 -71 -95
-133 -101 l-46 -4 3 261 4 261 -146 0 -146 0 2 -647z"/>
</g>
</svg>
